<svg width="24" height="18" viewBox="0 0 24 18" fill="none" xmlns="http://www.w3.org/2000/svg">
<path d="M21.1428 16.3125C21.8262 16.3125 22.2856 15.8602 22.2856 15.1875V0.28125C22.2856 0.206658 22.2555 0.135121 22.202 0.0823762C22.1484 0.0296316 22.0757 0 21.9999 0C21.9242 0 21.8515 0.0296316 21.7979 0.0823762C21.7443 0.135121 21.7142 0.206658 21.7142 0.28125V15.1875C21.7142 15.6769 21.3559 15.75 21.1428 15.75C21.0839 15.75 20.5714 15.7343 20.5714 15.1875V0.28125C20.5714 0.206658 20.5413 0.135121 20.4877 0.0823762C20.4341 0.0296316 20.3614 0 20.2856 0C20.2099 0 20.1372 0.0296316 20.0836 0.0823762C20.03 0.135121 19.9999 0.206658 19.9999 0.28125V15.1875C19.9999 15.9261 20.5748 16.3125 21.1428 16.3125ZM2.57136 11.8125H8.28565C8.36142 11.8125 8.43409 11.7829 8.48768 11.7301C8.54126 11.6774 8.57136 11.6058 8.57136 11.5312V6.46875C8.57136 6.39416 8.54126 6.32262 8.48768 6.26988C8.43409 6.21713 8.36142 6.1875 8.28565 6.1875H2.57136C2.49558 6.1875 2.42291 6.21713 2.36933 6.26988C2.31575 6.32262 2.28564 6.39416 2.28564 6.46875V11.5312C2.28564 11.6058 2.31575 11.6774 2.36933 11.7301C2.42291 11.7829 2.49558 11.8125 2.57136 11.8125ZM2.85707 6.75H7.99993V11.25H2.85707V6.75ZM2.57136 4.5H16.2856C16.3614 4.5 16.4341 4.47037 16.4877 4.41762C16.5413 4.36488 16.5714 4.29334 16.5714 4.21875V1.96875C16.5714 1.89416 16.5413 1.82262 16.4877 1.76988C16.4341 1.71713 16.3614 1.6875 16.2856 1.6875H2.57136C2.49558 1.6875 2.42291 1.71713 2.36933 1.76988C2.31575 1.82262 2.28564 1.89416 2.28564 1.96875V4.21875C2.28564 4.29334 2.31575 4.36488 2.36933 4.41762C2.42291 4.47037 2.49558 4.5 2.57136 4.5ZM2.85707 2.25H15.9999V3.9375H2.85707V2.25ZM16.2856 6.1875H10.5714C10.4956 6.1875 10.4229 6.21713 10.3693 6.26988C10.3157 6.32262 10.2856 6.39416 10.2856 6.46875C10.2856 6.54334 10.3157 6.61488 10.3693 6.66762C10.4229 6.72037 10.4956 6.75 10.5714 6.75H16.2856C16.3614 6.75 16.4341 6.72037 16.4877 6.66762C16.5413 6.61488 16.5714 6.54334 16.5714 6.46875C16.5714 6.39416 16.5413 6.32262 16.4877 6.26988C16.4341 6.21713 16.3614 6.1875 16.2856 6.1875ZM16.2856 7.875H10.5714C10.4956 7.875 10.4229 7.90463 10.3693 7.95738C10.3157 8.01012 10.2856 8.08166 10.2856 8.15625C10.2856 8.23084 10.3157 8.30238 10.3693 8.35512C10.4229 8.40787 10.4956 8.4375 10.5714 8.4375H16.2856C16.3614 8.4375 16.4341 8.40787 16.4877 8.35512C16.5413 8.30238 16.5714 8.23084 16.5714 8.15625C16.5714 8.08166 16.5413 8.01012 16.4877 7.95738C16.4341 7.90463 16.3614 7.875 16.2856 7.875ZM16.2856 9.5625H10.5714C10.4956 9.5625 10.4229 9.59213 10.3693 9.64488C10.3157 9.69762 10.2856 9.76916 10.2856 9.84375C10.2856 9.91834 10.3157 9.98988 10.3693 10.0426C10.4229 10.0954 10.4956 10.125 10.5714 10.125H16.2856C16.3614 10.125 16.4341 10.0954 16.4877 10.0426C16.5413 9.98988 16.5714 9.91834 16.5714 9.84375C16.5714 9.76916 16.5413 9.69762 16.4877 9.64488C16.4341 9.59213 16.3614 9.5625 16.2856 9.5625ZM16.2856 11.25H10.5714C10.4956 11.25 10.4229 11.2796 10.3693 11.3324C10.3157 11.3851 10.2856 11.4567 10.2856 11.5312C10.2856 11.6058 10.3157 11.6774 10.3693 11.7301C10.4229 11.7829 10.4956 11.8125 10.5714 11.8125H16.2856C16.3614 11.8125 16.4341 11.7829 16.4877 11.7301C16.5413 11.6774 16.5714 11.6058 16.5714 11.5312C16.5714 11.4567 16.5413 11.3851 16.4877 11.3324C16.4341 11.2796 16.3614 11.25 16.2856 11.25ZM16.2856 12.9375H10.5714C10.4956 12.9375 10.4229 12.9671 10.3693 13.0199C10.3157 13.0726 10.2856 13.1442 10.2856 13.2188C10.2856 13.2933 10.3157 13.3649 10.3693 13.4176C10.4229 13.4704 10.4956 13.5 10.5714 13.5H16.2856C16.3614 13.5 16.4341 13.4704 16.4877 13.4176C16.5413 13.3649 16.5714 13.2933 16.5714 13.2188C16.5714 13.1442 16.5413 13.0726 16.4877 13.0199C16.4341 12.9671 16.3614 12.9375 16.2856 12.9375ZM2.57136 13.5H8.28565C8.36142 13.5 8.43409 13.4704 8.48768 13.4176C8.54126 13.3649 8.57136 13.2933 8.57136 13.2188C8.57136 13.1442 8.54126 13.0726 8.48768 13.0199C8.43409 12.9671 8.36142 12.9375 8.28565 12.9375H2.57136C2.49558 12.9375 2.42291 12.9671 2.36933 13.0199C2.31575 13.0726 2.28564 13.1442 2.28564 13.2188C2.28564 13.2933 2.31575 13.3649 2.36933 13.4176C2.42291 13.4704 2.49558 13.5 2.57136 13.5ZM16.2856 14.625H10.5714C10.4956 14.625 10.4229 14.6546 10.3693 14.7074C10.3157 14.7601 10.2856 14.8317 10.2856 14.9062C10.2856 14.9808 10.3157 15.0524 10.3693 15.1051C10.4229 15.1579 10.4956 15.1875 10.5714 15.1875H16.2856C16.3614 15.1875 16.4341 15.1579 16.4877 15.1051C16.5413 15.0524 16.5714 14.9808 16.5714 14.9062C16.5714 14.8317 16.5413 14.7601 16.4877 14.7074C16.4341 14.6546 16.3614 14.625 16.2856 14.625ZM2.57136 15.1875H8.28565C8.36142 15.1875 8.43409 15.1579 8.48768 15.1051C8.54126 15.0524 8.57136 14.9808 8.57136 14.9062C8.57136 14.8317 8.54126 14.7601 8.48768 14.7074C8.43409 14.6546 8.36142 14.625 8.28565 14.625H2.57136C2.49558 14.625 2.42291 14.6546 2.36933 14.7074C2.31575 14.7601 2.28564 14.8317 2.28564 14.9062C2.28564 14.9808 2.31575 15.0524 2.36933 15.1051C2.42291 15.1579 2.49558 15.1875 2.57136 15.1875Z" fill="green"/>
<path d="M2.85713 17.9702H21.1543C21.1583 17.9702 21.1617 17.9679 21.1657 17.9679C21.911 17.9615 22.6236 17.6659 23.1487 17.1453C23.6739 16.6247 23.9691 15.9211 23.9703 15.1875V0.281223C23.9703 0.214537 23.9434 0.150583 23.8955 0.103429C23.8476 0.0562758 23.7826 0.0297852 23.7148 0.0297852C23.6471 0.0297852 23.5821 0.0562758 23.5342 0.103429C23.4863 0.150583 23.4594 0.214537 23.4594 0.281223V15.1875C23.4594 16.4447 22.4206 17.4673 21.1434 17.4673C19.8663 17.4673 18.8268 16.4447 18.8268 15.1875V0.281223C18.8268 0.142285 18.7126 0.0297852 18.5714 0.0297852H0.285702C0.144559 0.0297852 0.0302734 0.142285 0.0302734 0.281223V15.1875C0.0310298 15.9253 0.329101 16.6326 0.859076 17.1543C1.38905 17.676 2.10763 17.9694 2.85713 17.9702ZM0.541131 0.53266H18.3154V15.1875C18.3154 15.3596 18.3366 15.5267 18.3668 15.6909C18.3731 15.7235 18.3783 15.7562 18.3857 15.7882C18.4211 15.9446 18.468 16.0959 18.5291 16.2416C18.54 16.268 18.5531 16.2928 18.5651 16.3187C18.6268 16.4548 18.6983 16.5858 18.7811 16.7096C18.7908 16.7237 18.7983 16.7388 18.808 16.7529C18.8983 16.8823 19.0011 17.0021 19.1114 17.1146C19.1354 17.1388 19.1588 17.1624 19.184 17.186C19.2903 17.2873 19.4023 17.3835 19.5234 17.4673H2.85713C2.24312 17.4665 1.65448 17.2261 1.22031 16.7987C0.786136 16.3713 0.541887 15.7919 0.541131 15.1875V0.53266Z" fill="green"/>
</svg>
