<svg width="223" height="117" viewBox="0 0 223 117" fill="none" xmlns="http://www.w3.org/2000/svg">
<path d="M9.63086 100H6.8418L3.98438 95.7412C3.92969 95.6592 3.8431 95.4792 3.72461 95.2012H3.69043V100H1.48242V90.1973H3.69043V94.832H3.72461C3.7793 94.7044 3.87044 94.5221 3.99805 94.2852L6.70508 90.1973H9.33691L5.91895 94.873L9.63086 100ZM14.2109 100.171C12.8073 100.171 11.6634 99.7152 10.7793 98.8037C9.89518 97.8877 9.45312 96.696 9.45312 95.2285C9.45312 93.679 9.90202 92.4258 10.7998 91.4688C11.6976 90.5117 12.887 90.0332 14.3682 90.0332C15.7673 90.0332 16.8975 90.4912 17.7588 91.4072C18.6247 92.3232 19.0576 93.5309 19.0576 95.0303C19.0576 96.5706 18.6087 97.8125 17.7109 98.7559C16.8177 99.6992 15.651 100.171 14.2109 100.171ZM14.3066 91.9336C13.5319 91.9336 12.9167 92.2253 12.4609 92.8086C12.0052 93.3874 11.7773 94.1553 11.7773 95.1123C11.7773 96.083 12.0052 96.8509 12.4609 97.416C12.9167 97.9811 13.5137 98.2637 14.252 98.2637C15.013 98.2637 15.6169 97.9902 16.0635 97.4434C16.5101 96.8919 16.7334 96.1286 16.7334 95.1533C16.7334 94.137 16.5169 93.3464 16.084 92.7812C15.651 92.2161 15.0586 91.9336 14.3066 91.9336ZM31.8613 100H29.6807V94.1348C29.6807 93.5013 29.708 92.8018 29.7627 92.0361H29.708C29.5941 92.6377 29.4915 93.0706 29.4004 93.335L27.1035 100H25.2988L22.9609 93.4033C22.8971 93.2256 22.7946 92.7699 22.6533 92.0361H22.5918C22.651 93.0023 22.6807 93.8499 22.6807 94.5791V100H20.6914V90.1973H23.9248L25.9277 96.0078C26.0872 96.4727 26.2035 96.9398 26.2764 97.4092H26.3174C26.4404 96.8669 26.5703 96.3952 26.707 95.9941L28.71 90.1973H31.8613V100ZM41.6367 90.1973L38.5674 96.917C37.9932 98.1748 37.4508 99.0316 36.9404 99.4873C36.43 99.943 35.7829 100.171 34.999 100.171C34.4795 100.171 34.0557 100.096 33.7275 99.9453V97.9287C34.1012 98.1702 34.4886 98.291 34.8896 98.291C35.4411 98.291 35.9264 97.8444 36.3457 96.9512L33.126 90.1973H35.6416L37.2686 94.1211C37.3643 94.3581 37.4395 94.6247 37.4941 94.9209H37.5078C37.5579 94.6748 37.6354 94.4173 37.7402 94.1484L39.3125 90.1973H41.6367ZM51.1865 100H48.9717V96.0078H44.9111V100H42.7031V90.1973H44.9111V94.1074H48.9717V90.1973H51.1865V100ZM62.0557 100H59.6494L58.9521 97.8193H55.4658L54.7754 100H52.3828L55.9512 90.1973H58.5693L62.0557 100ZM58.4463 96.124L57.3936 92.8291C57.3161 92.583 57.2614 92.2891 57.2295 91.9473H57.1748C57.152 92.2344 57.0951 92.5192 57.0039 92.8018L55.9375 96.124H58.4463ZM71.7764 100H69.5684V92.0361H67.6064C67.0778 95.7913 66.5833 98.0814 66.123 98.9062C65.6628 99.7266 64.9632 100.137 64.0244 100.137C63.6279 100.137 63.2314 100.073 62.835 99.9453V98.1816C63.0993 98.2728 63.3271 98.3184 63.5186 98.3184C63.7054 98.3184 63.8695 98.2591 64.0107 98.1406C64.1566 98.0221 64.3161 97.7077 64.4893 97.1973C64.6624 96.6868 64.8698 95.8073 65.1113 94.5586C65.3574 93.3053 65.5921 91.8516 65.8154 90.1973H71.7764V100ZM74.0254 100V90.1973H76.2334V93.8682H77.6758C80.041 93.8682 81.2236 94.8298 81.2236 96.7529C81.2236 97.7783 80.9046 98.5758 80.2666 99.1455C79.6286 99.7152 78.7285 100 77.5664 100H74.0254ZM76.2334 95.5361V98.3184H77.2314C78.3434 98.3184 78.8994 97.8467 78.8994 96.9033C78.8994 95.9919 78.3571 95.5361 77.2725 95.5361H76.2334ZM91.2314 100H89.0166V96.0078H84.9561V100H82.748V90.1973H84.9561V94.1074H89.0166V90.1973H91.2314V100ZM99.3594 100H93.4805V90.1973H99.1338V91.9951H95.6885V94.1758H98.8945V95.9668H95.6885V98.209H99.3594V100ZM113.277 100H111.069V92.125H107.009V100H104.801V90.1973H113.277V100ZM117.728 100H115.52V90.1973H117.728V100ZM129.185 102.673H127.243V100H121.022V102.673H119.108V98.1953H120.018C121.285 95.903 121.984 93.237 122.116 90.1973H127.79V98.1953H129.185V102.673ZM125.575 98.1953V92.0361H123.907C123.857 92.943 123.684 93.9639 123.388 95.0986C123.091 96.2334 122.725 97.2656 122.287 98.1953H125.575ZM139.295 100H137.087V92.125H133.026V100H130.818V90.1973H139.295V100ZM143.745 96.623V100H141.537V90.1973H144.996C147.466 90.1973 148.701 91.2386 148.701 93.3213C148.701 94.3057 148.346 95.1032 147.635 95.7139C146.928 96.32 145.983 96.623 144.798 96.623H143.745ZM143.745 91.8926V94.9482H144.613C145.789 94.9482 146.377 94.4333 146.377 93.4033C146.377 92.3962 145.789 91.8926 144.613 91.8926H143.745ZM158.955 100H156.87V94.6133C156.87 93.9935 156.893 93.4648 156.938 93.0273H156.897C156.802 93.2142 156.638 93.4854 156.405 93.8408L152.358 100H150.137V90.1973H152.222V95.6182C152.222 96.2881 152.203 96.737 152.167 96.9648H152.194C152.217 96.9102 152.386 96.6436 152.7 96.165L156.59 90.1973H158.955V100ZM168.225 99.6514C167.509 99.9977 166.575 100.171 165.422 100.171C163.904 100.171 162.719 99.7288 161.867 98.8447C161.02 97.9606 160.596 96.7826 160.596 95.3105C160.596 93.6836 161.051 92.3984 161.963 91.4551C162.874 90.5072 164.107 90.0332 165.661 90.0332C166.655 90.0332 167.509 90.154 168.225 90.3955V92.4258C167.536 92.0339 166.734 91.8379 165.818 91.8379C165.025 91.8379 164.385 92.0498 163.897 92.4736C163.41 92.8929 163.111 93.4876 163.002 94.2578H166.782V96.0078H163.016C163.111 96.7552 163.398 97.334 163.877 97.7441C164.36 98.1543 164.998 98.3594 165.791 98.3594C166.698 98.3594 167.509 98.1497 168.225 97.7305V99.6514ZM181.117 100H178.937V94.1348C178.937 93.5013 178.964 92.8018 179.019 92.0361H178.964C178.85 92.6377 178.747 93.0706 178.656 93.335L176.359 100H174.555L172.217 93.4033C172.153 93.2256 172.05 92.7699 171.909 92.0361H171.848C171.907 93.0023 171.937 93.8499 171.937 94.5791V100H169.947V90.1973H173.181L175.184 96.0078C175.343 96.4727 175.459 96.9398 175.532 97.4092H175.573C175.696 96.8669 175.826 96.3952 175.963 95.9941L177.966 90.1973H181.117V100ZM190.373 99.6514C189.658 99.9977 188.723 100.171 187.57 100.171C186.066 100.171 184.884 99.7288 184.022 98.8447C183.161 97.9606 182.73 96.7826 182.73 95.3105C182.73 93.7428 183.214 92.4714 184.18 91.4961C185.15 90.5208 186.408 90.0332 187.953 90.0332C188.91 90.0332 189.717 90.154 190.373 90.3955V92.5215C189.717 92.1296 188.969 91.9336 188.131 91.9336C187.21 91.9336 186.467 92.223 185.902 92.8018C185.337 93.3805 185.055 94.1644 185.055 95.1533C185.055 96.1012 185.321 96.8577 185.854 97.4229C186.388 97.9834 187.105 98.2637 188.008 98.2637C188.869 98.2637 189.658 98.054 190.373 97.6348V99.6514ZM198.966 91.9951H196.17V100H193.955V91.9951H191.173V90.1973H198.966V91.9951ZM200.285 100V90.1973H203.854C204.947 90.1973 205.788 90.3978 206.376 90.7988C206.964 91.1999 207.258 91.765 207.258 92.4941C207.258 93.0228 207.078 93.4854 206.718 93.8818C206.362 94.2783 205.907 94.554 205.351 94.709V94.7363C206.048 94.8229 206.604 95.0804 207.019 95.5088C207.438 95.9372 207.647 96.459 207.647 97.0742C207.647 97.972 207.326 98.6852 206.684 99.2139C206.041 99.738 205.164 100 204.052 100H200.285ZM202.493 91.8242V94.1484H203.464C203.92 94.1484 204.277 94.0391 204.537 93.8203C204.801 93.597 204.934 93.2917 204.934 92.9043C204.934 92.1842 204.396 91.8242 203.32 91.8242H202.493ZM202.493 95.7891V98.373H203.689C204.2 98.373 204.599 98.2546 204.886 98.0176C205.177 97.7806 205.323 97.457 205.323 97.0469C205.323 96.6549 205.18 96.3473 204.893 96.124C204.61 95.9007 204.214 95.7891 203.703 95.7891H202.493ZM213.41 100.171C212.007 100.171 210.863 99.7152 209.979 98.8037C209.094 97.8877 208.652 96.696 208.652 95.2285C208.652 93.679 209.101 92.4258 209.999 91.4688C210.897 90.5117 212.086 90.0332 213.567 90.0332C214.966 90.0332 216.097 90.4912 216.958 91.4072C217.824 92.3232 218.257 93.5309 218.257 95.0303C218.257 96.5706 217.808 97.8125 216.91 98.7559C216.017 99.6992 214.85 100.171 213.41 100.171ZM213.506 91.9336C212.731 91.9336 212.116 92.2253 211.66 92.8086C211.204 93.3874 210.977 94.1553 210.977 95.1123C210.977 96.083 211.204 96.8509 211.66 97.416C212.116 97.9811 212.713 98.2637 213.451 98.2637C214.212 98.2637 214.816 97.9902 215.263 97.4434C215.709 96.8919 215.933 96.1286 215.933 95.1533C215.933 94.137 215.716 93.3464 215.283 92.7812C214.85 92.2161 214.258 91.9336 213.506 91.9336ZM35.4023 104.965L34.6299 108H32.7705L34.0693 104.965H35.4023ZM32.5586 104.965L31.8066 108H29.9268L31.2188 104.965H32.5586ZM44.3232 114.651C43.6077 114.998 42.6735 115.171 41.5205 115.171C40.0166 115.171 38.834 114.729 37.9727 113.845C37.1113 112.961 36.6807 111.783 36.6807 110.311C36.6807 108.743 37.1637 107.471 38.1299 106.496C39.1006 105.521 40.3584 105.033 41.9033 105.033C42.8604 105.033 43.667 105.154 44.3232 105.396V107.521C43.667 107.13 42.9196 106.934 42.0811 106.934C41.1605 106.934 40.4176 107.223 39.8525 107.802C39.2874 108.381 39.0049 109.164 39.0049 110.153C39.0049 111.101 39.2715 111.858 39.8047 112.423C40.3379 112.983 41.0557 113.264 41.958 113.264C42.8193 113.264 43.6077 113.054 44.3232 112.635V114.651ZM51.9111 115H46.0322V105.197H51.6855V106.995H48.2402V109.176H51.4463V110.967H48.2402V113.209H51.9111V115ZM55.6914 111.623V115H53.4834V105.197H56.9424C59.4124 105.197 60.6475 106.239 60.6475 108.321C60.6475 109.306 60.292 110.103 59.5811 110.714C58.8747 111.32 57.929 111.623 56.7441 111.623H55.6914ZM55.6914 106.893V109.948H56.5596C57.7354 109.948 58.3232 109.433 58.3232 108.403C58.3232 107.396 57.7354 106.893 56.5596 106.893H55.6914ZM62.083 115V105.197H65.6514C66.7451 105.197 67.5859 105.398 68.1738 105.799C68.7617 106.2 69.0557 106.765 69.0557 107.494C69.0557 108.023 68.8757 108.485 68.5156 108.882C68.1602 109.278 67.7044 109.554 67.1484 109.709V109.736C67.8457 109.823 68.4017 110.08 68.8164 110.509C69.2357 110.937 69.4453 111.459 69.4453 112.074C69.4453 112.972 69.124 113.685 68.4814 114.214C67.8389 114.738 66.9616 115 65.8496 115H62.083ZM64.291 106.824V109.148H65.2617C65.7174 109.148 66.0752 109.039 66.335 108.82C66.5993 108.597 66.7314 108.292 66.7314 107.904C66.7314 107.184 66.1937 106.824 65.1182 106.824H64.291ZM64.291 110.789V113.373H65.4873C65.9977 113.373 66.3965 113.255 66.6836 113.018C66.9753 112.781 67.1211 112.457 67.1211 112.047C67.1211 111.655 66.9775 111.347 66.6904 111.124C66.4079 110.901 66.0114 110.789 65.501 110.789H64.291ZM73.2734 115H71.0654V105.197H73.2734V115ZM82.5361 114.651C81.8206 114.998 80.8864 115.171 79.7334 115.171C78.2295 115.171 77.0469 114.729 76.1855 113.845C75.3242 112.961 74.8936 111.783 74.8936 110.311C74.8936 108.743 75.3766 107.471 76.3428 106.496C77.3135 105.521 78.5713 105.033 80.1162 105.033C81.0732 105.033 81.8799 105.154 82.5361 105.396V107.521C81.8799 107.13 81.1325 106.934 80.2939 106.934C79.3734 106.934 78.6305 107.223 78.0654 107.802C77.5003 108.381 77.2178 109.164 77.2178 110.153C77.2178 111.101 77.4844 111.858 78.0176 112.423C78.5508 112.983 79.2686 113.264 80.1709 113.264C81.0322 113.264 81.8206 113.054 82.5361 112.635V114.651ZM92.3936 115H89.6045L86.7471 110.741C86.6924 110.659 86.6058 110.479 86.4873 110.201H86.4531V115H84.2451V105.197H86.4531V109.832H86.4873C86.542 109.704 86.6331 109.522 86.7607 109.285L89.4678 105.197H92.0996L88.6816 109.873L92.3936 115ZM96.9736 115.171C95.57 115.171 94.4261 114.715 93.542 113.804C92.6579 112.888 92.2158 111.696 92.2158 110.229C92.2158 108.679 92.6647 107.426 93.5625 106.469C94.4603 105.512 95.6497 105.033 97.1309 105.033C98.5299 105.033 99.6602 105.491 100.521 106.407C101.387 107.323 101.82 108.531 101.82 110.03C101.82 111.571 101.371 112.812 100.474 113.756C99.5804 114.699 98.4137 115.171 96.9736 115.171ZM97.0693 106.934C96.2946 106.934 95.6794 107.225 95.2236 107.809C94.7679 108.387 94.54 109.155 94.54 110.112C94.54 111.083 94.7679 111.851 95.2236 112.416C95.6794 112.981 96.2764 113.264 97.0146 113.264C97.7757 113.264 98.3796 112.99 98.8262 112.443C99.2728 111.892 99.4961 111.129 99.4961 110.153C99.4961 109.137 99.2796 108.346 98.8467 107.781C98.4137 107.216 97.8213 106.934 97.0693 106.934ZM114.624 115H112.443V109.135C112.443 108.501 112.471 107.802 112.525 107.036H112.471C112.357 107.638 112.254 108.071 112.163 108.335L109.866 115H108.062L105.724 108.403C105.66 108.226 105.557 107.77 105.416 107.036H105.354C105.414 108.002 105.443 108.85 105.443 109.579V115H103.454V105.197H106.688L108.69 111.008C108.85 111.473 108.966 111.94 109.039 112.409H109.08C109.203 111.867 109.333 111.395 109.47 110.994L111.473 105.197H114.624V115ZM124.399 105.197L121.33 111.917C120.756 113.175 120.214 114.032 119.703 114.487C119.193 114.943 118.546 115.171 117.762 115.171C117.242 115.171 116.818 115.096 116.49 114.945V112.929C116.864 113.17 117.251 113.291 117.652 113.291C118.204 113.291 118.689 112.844 119.108 111.951L115.889 105.197H118.404L120.031 109.121C120.127 109.358 120.202 109.625 120.257 109.921H120.271C120.321 109.675 120.398 109.417 120.503 109.148L122.075 105.197H124.399ZM133.949 115H131.734V111.008H127.674V115H125.466V105.197H127.674V109.107H131.734V105.197H133.949V115ZM142.077 115H136.198V105.197H141.852V106.995H138.406V109.176H141.612V110.967H138.406V113.209H142.077V115ZM152.133 115H149.918V111.008H145.857V115H143.649V105.197H145.857V109.107H149.918V105.197H152.133V115ZM160.261 115H154.382V105.197H160.035V106.995H156.59V109.176H159.796V110.967H156.59V113.209H160.261V115ZM164.041 111.623V115H161.833V105.197H165.292C167.762 105.197 168.997 106.239 168.997 108.321C168.997 109.306 168.642 110.103 167.931 110.714C167.224 111.32 166.279 111.623 165.094 111.623H164.041ZM164.041 106.893V109.948H164.909C166.085 109.948 166.673 109.433 166.673 108.403C166.673 107.396 166.085 106.893 164.909 106.893H164.041ZM176.271 107.022H172.641V115H170.433V105.197H176.271V107.022ZM181.466 115.171C180.062 115.171 178.918 114.715 178.034 113.804C177.15 112.888 176.708 111.696 176.708 110.229C176.708 108.679 177.157 107.426 178.055 106.469C178.952 105.512 180.142 105.033 181.623 105.033C183.022 105.033 184.152 105.491 185.014 106.407C185.88 107.323 186.312 108.531 186.312 110.03C186.312 111.571 185.864 112.812 184.966 113.756C184.073 114.699 182.906 115.171 181.466 115.171ZM181.562 106.934C180.787 106.934 180.172 107.225 179.716 107.809C179.26 108.387 179.032 109.155 179.032 110.112C179.032 111.083 179.26 111.851 179.716 112.416C180.172 112.981 180.769 113.264 181.507 113.264C182.268 113.264 182.872 112.99 183.318 112.443C183.765 111.892 183.988 111.129 183.988 110.153C183.988 109.137 183.772 108.346 183.339 107.781C182.906 107.216 182.313 106.934 181.562 106.934ZM193.08 104.965L191.781 108H190.435L191.207 104.965H193.08ZM190.243 104.965L188.924 108H187.598L188.377 104.965H190.243Z" fill="white" fill-opacity="0.6"/>
<path d="M112.025 1.86005L112.032 32.996C112.032 33.0605 112.009 33.1228 111.968 33.1721C111.926 33.2213 111.868 33.2543 111.805 33.265L108.782 33.8256C108.717 33.8379 108.651 33.8312 108.59 33.8065C108.53 33.7817 108.478 33.7399 108.441 33.6862C108.218 33.3622 107.955 33.0673 107.541 33.0122C106.039 32.8027 104.638 32.5435 103.338 32.2346C103.217 32.2043 103.157 32.1266 103.157 32.0013L103.153 4.17038C103.153 4.04725 103.207 3.9576 103.315 3.90144L110.664 0.0940887C110.895 -0.0268823 111.13 -0.031203 111.367 0.0811272L119.646 3.9792C119.691 4.00058 119.729 4.03412 119.755 4.07597C119.781 4.11783 119.795 4.16628 119.795 4.21574L119.786 26.9367C119.786 27.1246 119.697 27.251 119.52 27.3158L119.037 27.4908C118.839 27.5621 118.739 27.4929 118.739 27.2834L118.736 4.83464C118.736 4.74391 118.695 4.67911 118.613 4.64022L112.323 1.67211C112.292 1.65668 112.256 1.64959 112.221 1.65152C112.186 1.65346 112.152 1.66434 112.122 1.68316C112.092 1.70198 112.068 1.7281 112.051 1.75905C112.034 1.79 112.025 1.82477 112.025 1.86005Z" fill="white" fill-opacity="0.6"/>
<path d="M123.658 28.2783L121.704 27.7437C121.654 27.7301 121.611 27.7005 121.58 27.6595C121.548 27.6184 121.532 27.5683 121.532 27.5168L121.539 15.706C121.539 15.6631 121.55 15.6211 121.573 15.5845C121.595 15.548 121.627 15.5182 121.665 15.4986L127.125 12.6763C127.157 12.6603 127.191 12.6517 127.227 12.6512C127.262 12.6506 127.297 12.6581 127.329 12.673L134.101 15.8453C134.141 15.8643 134.175 15.8941 134.198 15.9314C134.222 15.9687 134.234 16.0118 134.234 16.0559L134.231 28.8324C134.231 28.8829 134.214 28.932 134.184 28.9723C134.154 29.0126 134.111 29.042 134.062 29.056L133.46 29.231C133.425 29.241 133.388 29.2428 133.353 29.2363C133.317 29.2298 133.284 29.2152 133.255 29.1935C133.226 29.1718 133.203 29.1437 133.186 29.1114C133.17 29.0791 133.162 29.0435 133.162 29.0074V16.6943C133.161 16.6498 133.148 16.6064 133.124 16.5691C133.1 16.5318 133.066 16.5021 133.026 16.4836L128.703 14.4617C128.667 14.4447 128.628 14.437 128.589 14.4394C128.549 14.4417 128.511 14.4539 128.478 14.475C128.445 14.496 128.417 14.5251 128.398 14.5596C128.379 14.5941 128.369 14.6329 128.369 14.6723L128.389 29.8952C128.389 29.949 128.371 30.0012 128.337 30.0431C128.304 30.0851 128.257 30.1141 128.204 30.1253L124.066 30.984C124.032 30.9907 123.997 30.9898 123.963 30.9811C123.929 30.9725 123.898 30.9564 123.871 30.934C123.844 30.9116 123.823 30.8835 123.808 30.8518C123.794 30.8201 123.787 30.7855 123.787 30.7507L123.83 28.5084C123.831 28.4564 123.814 28.4055 123.783 28.3638C123.752 28.3221 123.708 28.292 123.658 28.2783Z" fill="white" fill-opacity="0.6"/>
<path d="M96.4136 15.8842L96.42 28.1909C96.4199 28.2261 96.4076 28.2603 96.3852 28.2874C96.3627 28.3146 96.3315 28.3332 96.2969 28.3399L94.3948 28.7061C94.3596 28.7122 94.3277 28.7304 94.3046 28.7577C94.2815 28.7849 94.2687 28.8194 94.2685 28.8551L94.2847 30.3457C94.285 30.3681 94.2804 30.3902 94.2712 30.4106C94.262 30.431 94.2484 30.4491 94.2313 30.4637C94.2143 30.4782 94.1943 30.4888 94.1727 30.4948C94.1511 30.5007 94.1285 30.5018 94.1065 30.498L89.7094 29.7235C89.6742 29.7175 89.6422 29.6992 89.6191 29.672C89.596 29.6447 89.5832 29.6102 89.583 29.5745V17.0183C89.583 16.9901 89.5909 16.9624 89.6058 16.9383C89.6207 16.9143 89.642 16.8949 89.6673 16.8822L95.2308 14.0243C95.2517 14.0132 95.2749 14.0072 95.2985 14.0066C95.3221 14.0061 95.3456 14.011 95.3669 14.0211L102.214 17.2419C102.24 17.2543 102.262 17.2741 102.278 17.2988C102.293 17.3235 102.301 17.3521 102.301 17.3813L102.285 28.4371C102.285 28.4608 102.279 28.484 102.268 28.505C102.257 28.5259 102.241 28.544 102.222 28.5579C102.203 28.5717 102.18 28.5809 102.157 28.5847C102.134 28.5885 102.11 28.5868 102.087 28.5797L101.374 28.3497C101.344 28.3401 101.317 28.3212 101.298 28.2956C101.279 28.2701 101.268 28.2391 101.268 28.2071L101.258 18.0326C101.258 18.0034 101.25 17.9748 101.234 17.9501C101.219 17.9254 101.197 17.9056 101.17 17.8932L96.6307 15.7481C96.6076 15.7373 96.5821 15.7324 96.5567 15.7339C96.5312 15.7355 96.5066 15.7434 96.4849 15.7569C96.4633 15.7705 96.4455 15.7892 96.433 15.8115C96.4205 15.8337 96.4138 15.8587 96.4136 15.8842Z" fill="white" fill-opacity="0.6"/>
<path d="M94.5828 34.5126L96.9871 36.3985C97.2852 36.6318 97.4342 36.5594 97.4342 36.1814L97.4407 28.3366C97.441 28.3094 97.4476 28.2826 97.46 28.2584C97.4724 28.2342 97.4903 28.2134 97.5121 28.1975C97.5339 28.1817 97.5591 28.1714 97.5856 28.1674C97.6121 28.1634 97.639 28.1659 97.6643 28.1746L101.899 29.5452C101.971 29.569 102.033 29.6146 102.077 29.6757C102.122 29.7367 102.145 29.8101 102.146 29.8855L102.139 32.8374C102.139 32.9713 102.204 33.0502 102.334 33.0739L107.324 34.0006C107.407 34.0164 107.485 34.0541 107.549 34.1101C107.613 34.166 107.661 34.238 107.688 34.3187C107.714 34.3994 107.719 34.4857 107.701 34.5688C107.683 34.6519 107.644 34.7287 107.586 34.7913L96.9968 46.1906C96.9765 46.2123 96.9484 46.2251 96.9187 46.2263C96.889 46.2275 96.8601 46.2171 96.838 46.1971L84.0097 34.2372C83.9319 34.1637 83.8617 34.1702 83.7991 34.2566L71.567 50.9895C71.5329 51.0357 71.4885 51.0733 71.4373 51.0992C71.3861 51.1251 71.3295 51.1386 71.2721 51.1386L40.094 51.1288C40.0356 51.1288 40.0054 51.0997 40.0032 51.0414L40 49.0389C40 49 40.0194 48.9805 40.0583 48.9805L70.151 48.9773C70.1901 48.9773 70.2287 48.9679 70.2636 48.9498C70.2985 48.9318 70.3288 48.9057 70.3518 48.8736L84.0097 29.8109C84.0429 29.7652 84.0882 29.7296 84.1404 29.7084C84.1925 29.6872 84.2494 29.6812 84.3046 29.6911L94.1259 31.5024C94.1659 31.5099 94.2021 31.5312 94.2281 31.5626C94.2542 31.5939 94.2684 31.6334 94.2685 31.6741L94.2717 33.8807C94.2739 34.1421 94.3776 34.3528 94.5828 34.5126Z" fill="white" fill-opacity="0.6"/>
<path d="M135.365 34.9919L118.746 50.4838C118.721 50.5064 118.689 50.5191 118.655 50.5194L94.5309 50.5972C94.5041 50.5976 94.4778 50.59 94.4552 50.5755C94.4327 50.561 94.4149 50.5401 94.4042 50.5156C94.3935 50.491 94.3902 50.4638 94.3949 50.4374C94.3996 50.411 94.412 50.3865 94.4305 50.3671L108.863 34.8429C108.882 34.8218 108.906 34.807 108.934 34.8007L114.728 33.6926C114.759 33.6865 114.787 33.6695 114.808 33.6446C114.828 33.6197 114.838 33.5885 114.838 33.5565L114.851 29.9403C114.851 29.9121 114.861 29.8848 114.878 29.8621C114.895 29.8395 114.918 29.8227 114.945 29.8139L120.009 28.1776C120.03 28.1709 120.052 28.1692 120.073 28.1726C120.094 28.1759 120.114 28.1843 120.132 28.1969C120.149 28.2096 120.163 28.2262 120.173 28.2453C120.183 28.2645 120.188 28.2857 120.188 28.3072L120.184 37.5809C120.184 37.6065 120.192 37.6315 120.205 37.6532C120.219 37.6748 120.238 37.6922 120.261 37.7034C120.284 37.7146 120.31 37.719 120.335 37.7163C120.361 37.7135 120.385 37.7037 120.405 37.6878L123.69 35.1183C123.707 35.1056 123.72 35.0893 123.729 35.0708C123.738 35.0523 123.742 35.0319 123.742 35.0114L123.762 32.1178C123.762 32.0863 123.773 32.0559 123.793 32.0317C123.813 32.0074 123.841 31.9909 123.872 31.9849L135.119 29.8561C135.143 29.8512 135.169 29.8532 135.192 29.8617C135.216 29.8703 135.236 29.8852 135.252 29.9047L150.514 48.9219C150.526 48.9381 150.543 48.9512 150.561 48.9602C150.58 48.9691 150.6 48.9738 150.62 48.9738L181.134 48.9803C181.17 48.9803 181.205 48.9946 181.231 49.0201C181.256 49.0457 181.27 49.0803 181.27 49.1164L181.257 50.9893C181.257 51.0071 181.254 51.0248 181.247 51.0413C181.24 51.0578 181.23 51.0729 181.218 51.0855C181.205 51.0981 181.19 51.1082 181.173 51.115C181.157 51.1218 181.139 51.1254 181.121 51.1254L148.589 51.1416C148.568 51.1416 148.548 51.1369 148.529 51.1279C148.511 51.1189 148.495 51.1059 148.482 51.0897L135.563 35.0049C135.551 34.9906 135.536 34.9788 135.52 34.9704C135.503 34.9619 135.485 34.957 135.467 34.9557C135.448 34.9545 135.43 34.9571 135.412 34.9633C135.395 34.9696 135.379 34.9793 135.365 34.9919Z" fill="white" fill-opacity="0.6"/>
<path d="M83.589 42.2776L81.3468 42.2815C81.2788 42.2816 81.2237 42.3369 81.2238 42.4049L81.2288 45.2304C81.2289 45.2984 81.2841 45.3534 81.3521 45.3533L83.5944 45.3494C83.6624 45.3493 83.7174 45.2941 83.7173 45.2261L83.7124 42.4005C83.7123 42.3325 83.657 42.2775 83.589 42.2776Z" fill="white" fill-opacity="0.6"/>
<path d="M87.4768 42.2766H84.8586C84.7799 42.2766 84.7161 42.3404 84.7161 42.4192V45.2123C84.7161 45.2911 84.7799 45.3549 84.8586 45.3549H87.4768C87.5555 45.3549 87.6194 45.2911 87.6194 45.2123V42.4192C87.6194 42.3404 87.5555 42.2766 87.4768 42.2766Z" fill="white" fill-opacity="0.6"/>
<path d="M134.386 44.0726L131.43 44.0572C131.323 44.0566 131.236 44.1432 131.235 44.2506L131.219 47.3029C131.219 47.4103 131.305 47.4978 131.412 47.4983L134.368 47.5138C134.475 47.5144 134.562 47.4278 134.563 47.3204L134.579 44.2681C134.58 44.1607 134.493 44.0732 134.386 44.0726Z" fill="white" fill-opacity="0.6"/>
<path d="M138.255 44.0691L135.877 44.0608C135.757 44.0604 135.659 44.1573 135.659 44.2772L135.648 47.2906C135.648 47.4105 135.745 47.5081 135.864 47.5085L138.243 47.5168C138.363 47.5172 138.46 47.4203 138.461 47.3004L138.471 44.287C138.472 44.1671 138.375 44.0695 138.255 44.0691Z" fill="white" fill-opacity="0.6"/>
<path d="M83.6015 46.3525H81.3592C81.2858 46.3525 81.2263 46.412 81.2263 46.4854V48.8702C81.2263 48.9436 81.2858 49.0031 81.3592 49.0031H83.6015C83.6748 49.0031 83.7343 48.9436 83.7343 48.8702V46.4854C83.7343 46.412 83.6748 46.3525 83.6015 46.3525Z" fill="white" fill-opacity="0.6"/>
<path d="M87.4679 46.347L84.8563 46.3516C84.7757 46.3517 84.7106 46.4171 84.7107 46.4976L84.7148 48.8566C84.715 48.9371 84.7804 49.0022 84.8609 49.0021L87.4726 48.9976C87.5531 48.9974 87.6183 48.932 87.6181 48.8515L87.614 46.4926C87.6139 46.412 87.5485 46.3469 87.4679 46.347Z" fill="white" fill-opacity="0.6"/>
<path d="M134.387 48.6053L131.406 48.6105C131.304 48.6107 131.222 48.6935 131.222 48.7955L131.226 51.4785C131.227 51.5805 131.309 51.663 131.411 51.6629L134.393 51.6577C134.495 51.6575 134.577 51.5747 134.577 51.4726L134.572 48.7897C134.572 48.6877 134.489 48.6051 134.387 48.6053Z" fill="white" fill-opacity="0.6"/>
<path d="M138.259 48.596L135.855 48.6002C135.742 48.6004 135.651 48.692 135.651 48.8047L135.656 51.4488C135.656 51.5615 135.748 51.6528 135.86 51.6526L138.265 51.6484C138.377 51.6482 138.469 51.5566 138.468 51.4439L138.464 48.7998C138.464 48.6871 138.372 48.5958 138.259 48.596Z" fill="white" fill-opacity="0.6"/>
<path d="M181.151 76.2119H40.1004C40.045 76.2119 40 76.2569 40 76.3124V78.2306C40 78.2861 40.045 78.3311 40.1004 78.3311H181.151C181.206 78.3311 181.251 78.2861 181.251 78.2306V76.3124C181.251 76.2569 181.206 76.2119 181.151 76.2119Z" fill="white" fill-opacity="0.6"/>
<path d="M176.897 68.7413C176.041 68.7413 175.27 68.5523 174.584 68.1742C173.905 67.7961 173.369 67.2733 172.976 66.6056C172.59 65.9379 172.397 65.1858 172.397 64.3492C172.397 63.5126 172.59 62.7604 172.976 62.0928C173.369 61.4251 173.905 60.9022 174.584 60.5241C175.27 60.1461 176.041 59.957 176.897 59.957C177.753 59.957 178.521 60.1461 179.199 60.5241C179.886 60.9022 180.422 61.4251 180.807 62.0928C181.201 62.7604 181.397 63.5126 181.397 64.3492C181.397 65.1858 181.201 65.9379 180.807 66.6056C180.422 67.2733 179.886 67.7961 179.199 68.1742C178.521 68.5523 177.753 68.7413 176.897 68.7413ZM176.897 66.7625C177.306 66.7625 177.676 66.6619 178.008 66.4608C178.339 66.2597 178.602 65.9781 178.794 65.6162C178.987 65.2461 179.084 64.8238 179.084 64.3492C179.084 63.8746 178.987 63.4563 178.794 63.0943C178.602 62.7242 178.339 62.4387 178.008 62.2376C177.676 62.0365 177.306 61.9359 176.897 61.9359C176.489 61.9359 176.118 62.0365 175.787 62.2376C175.455 62.4387 175.193 62.7242 175 63.0943C174.807 63.4563 174.711 63.8746 174.711 64.3492C174.711 64.8238 174.807 65.2461 175 65.6162C175.193 65.9781 175.455 66.2597 175.787 66.4608C176.118 66.6619 176.489 66.7625 176.897 66.7625Z" fill="white" fill-opacity="0.6"/>
<path d="M172.582 62.0204H168.915V68.5724H166.66V60.126H172.594L172.582 62.0204Z" fill="white" fill-opacity="0.6"/>
<path d="M162.024 60.126C162.757 60.126 163.393 60.2547 163.933 60.5121C164.473 60.7615 164.889 61.1235 165.182 61.5981C165.476 62.0646 165.622 62.6157 165.622 63.2512C165.622 63.8867 165.476 64.4377 165.182 64.9043C164.889 65.3708 164.473 65.7328 163.933 65.9902C163.393 66.2396 162.757 66.3643 162.024 66.3643H160.613V68.5724H158.323V60.126H162.024ZM161.886 64.4819C162.356 64.4819 162.711 64.3774 162.95 64.1682C163.189 63.951 163.309 63.6453 163.309 63.2512C163.309 62.857 163.189 62.5513 162.95 62.3341C162.711 62.1169 162.356 62.0083 161.886 62.0083H160.613V64.4819H161.886Z" fill="white" fill-opacity="0.6"/>
<path d="M157.018 66.7263V68.5724H150.517V60.126H156.867V61.9721H152.784V63.396H156.382V65.1818H152.784V66.7263H157.018Z" fill="white" fill-opacity="0.6"/>
<path d="M148.777 60.126V68.5724H146.486V65.2783H143.363V68.5724H141.073V60.126H143.363V63.2994H146.486V60.126H148.777Z" fill="white" fill-opacity="0.6"/>
<path d="M139.767 66.7263V68.5724H133.266V60.126H139.617V61.9721H135.534V63.396H139.131V65.1818H135.534V66.7263H139.767Z" fill="white" fill-opacity="0.6"/>
<path d="M131.527 60.126V68.5724H129.236V65.2783H126.113V68.5724H123.823V60.126H126.113V63.2994H129.236V60.126H131.527Z" fill="white" fill-opacity="0.6"/>
<path d="M123.088 60.126L119.733 66.6539C119.378 67.3537 118.943 67.8846 118.426 68.2466C117.917 68.6086 117.358 68.7896 116.749 68.7896C116.301 68.7896 115.823 68.685 115.314 68.4759L115.858 66.7142C116.174 66.8107 116.444 66.859 116.668 66.859C116.891 66.859 117.088 66.8067 117.258 66.7021C117.435 66.5976 117.597 66.4327 117.743 66.2074L114.597 60.126H117.015L118.9 64.2044L120.855 60.126H123.088Z" fill="white" fill-opacity="0.6"/>
<path d="M111.556 68.5724L111.544 64.0958L109.462 67.7398H108.444L106.362 64.1923V68.5724H104.257V60.126H106.142L108.988 65.0008L111.764 60.126H113.65L113.673 68.5724H111.556Z" fill="white" fill-opacity="0.6"/>
<path d="M98.5319 68.7413C97.6759 68.7413 96.9047 68.5523 96.2183 68.1742C95.5397 67.7961 95.0037 67.2733 94.6104 66.6056C94.2248 65.9379 94.032 65.1858 94.032 64.3492C94.032 63.5126 94.2248 62.7604 94.6104 62.0928C95.0037 61.4251 95.5397 60.9022 96.2183 60.5241C96.9047 60.1461 97.6759 59.957 98.5319 59.957C99.3879 59.957 100.155 60.1461 100.834 60.5241C101.52 60.9022 102.056 61.4251 102.442 62.0928C102.835 62.7604 103.032 63.5126 103.032 64.3492C103.032 65.1858 102.835 65.9379 102.442 66.6056C102.056 67.2733 101.52 67.7961 100.834 68.1742C100.155 68.5523 99.3879 68.7413 98.5319 68.7413ZM98.5319 66.7625C98.9406 66.7625 99.3108 66.6619 99.6424 66.4608C99.974 66.2597 100.236 65.9781 100.429 65.6162C100.622 65.2461 100.718 64.8238 100.718 64.3492C100.718 63.8746 100.622 63.4563 100.429 63.0943C100.236 62.7242 99.974 62.4387 99.6424 62.2376C99.3108 62.0365 98.9406 61.9359 98.5319 61.9359C98.1231 61.9359 97.753 62.0365 97.4214 62.2376C97.0897 62.4387 96.8275 62.7242 96.6347 63.0943C96.4419 63.4563 96.3456 63.8746 96.3456 64.3492C96.3456 64.8238 96.4419 65.2461 96.6347 65.6162C96.8275 65.9781 97.0897 66.2597 97.4214 66.4608C97.753 66.6619 98.1231 66.7625 98.5319 66.7625Z" fill="white" fill-opacity="0.6"/>
<path d="M89.444 65.3386H88.4029V68.5724H86.124V60.126H88.4029V63.408H89.5018L91.4337 60.126H93.8398L91.3064 64.2044L93.8629 68.5724H91.2833L89.444 65.3386Z" fill="white" fill-opacity="0.6"/>
<path d="M81.6538 68.7413C80.8055 68.7413 80.042 68.5563 79.3634 68.1863C78.6924 67.8082 78.1642 67.2853 77.7786 66.6177C77.393 65.95 77.2002 65.1938 77.2002 64.3492C77.2002 63.5045 77.393 62.7484 77.7786 62.0807C78.1642 61.413 78.6924 60.8942 79.3634 60.5241C80.042 60.1461 80.8055 59.957 81.6538 59.957C82.3942 59.957 83.0612 60.0938 83.6551 60.3673C84.2489 60.6408 84.7424 61.035 85.1357 61.5498L83.6782 62.9254C83.1538 62.2657 82.5176 61.9359 81.7695 61.9359C81.3299 61.9359 80.9366 62.0365 80.5896 62.2376C80.2503 62.4387 79.9842 62.7242 79.7914 63.0943C79.6063 63.4563 79.5138 63.8746 79.5138 64.3492C79.5138 64.8238 79.6063 65.2461 79.7914 65.6162C79.9842 65.9781 80.2503 66.2597 80.5896 66.4608C80.9366 66.6619 81.3299 66.7625 81.7695 66.7625C82.5176 66.7625 83.1538 66.4326 83.6782 65.773L85.1357 67.1486C84.7424 67.6634 84.2489 68.0576 83.6551 68.3311C83.0612 68.6046 82.3942 68.7413 81.6538 68.7413Z" fill="white" fill-opacity="0.6"/>
<path d="M73.7214 60.126H75.9772V68.5724H73.7214V60.126Z" fill="white" fill-opacity="0.6"/>
<path d="M71.0129 64.1561C71.491 64.317 71.8535 64.5664 72.1003 64.9043C72.3548 65.2421 72.482 65.6604 72.482 66.1592C72.482 66.9073 72.2005 67.4985 71.6376 67.9329C71.0823 68.3593 70.2918 68.5724 69.2661 68.5724H65.1133V60.126H69.0464C70.0181 60.126 70.77 60.319 71.3021 60.7052C71.8419 61.0832 72.1118 61.6222 72.1118 62.3221C72.1118 62.7323 72.0154 63.0943 71.8226 63.408C71.6376 63.7218 71.3676 63.9711 71.0129 64.1561ZM67.369 63.5046H68.8266C69.4744 63.5046 69.7983 63.227 69.7983 62.672C69.7983 62.1169 69.4744 61.8394 68.8266 61.8394H67.369V63.5046ZM69.1736 66.859C69.8368 66.859 70.1684 66.5654 70.1684 65.9782C70.1684 65.407 69.8368 65.1214 69.1736 65.1214H67.369V66.859H69.1736Z" fill="white" fill-opacity="0.6"/>
<path d="M60.4781 60.126C61.2107 60.126 61.8469 60.2547 62.3868 60.5121C62.9266 60.7615 63.3431 61.1235 63.6361 61.5981C63.9292 62.0646 64.0757 62.6157 64.0757 63.2512C64.0757 63.8867 63.9292 64.4377 63.6361 64.9043C63.3431 65.3708 62.9266 65.7328 62.3868 65.9902C61.8469 66.2396 61.2107 66.3643 60.4781 66.3643H59.0668V68.5724H56.7764V60.126H60.4781ZM60.3393 64.4819C60.8097 64.4819 61.1644 64.3774 61.4035 64.1682C61.6426 63.951 61.7621 63.6453 61.7621 63.2512C61.7621 62.857 61.6426 62.5513 61.4035 62.3341C61.1644 62.1169 60.8097 62.0083 60.3393 62.0083H59.0668V64.4819H60.3393Z" fill="white" fill-opacity="0.6"/>
<path d="M55.4714 66.7263V68.5724H48.9702V60.126H55.321V61.9721H51.2375V63.396H54.8351V65.1818H51.2375V66.7263H55.4714Z" fill="white" fill-opacity="0.6"/>
<path d="M44.4536 68.7413C43.6053 68.7413 42.8418 68.5563 42.1632 68.1863C41.4923 67.8082 40.964 67.2853 40.5784 66.6177C40.1928 65.95 40 65.1938 40 64.3492C40 63.5045 40.1928 62.7484 40.5784 62.0807C40.964 61.413 41.4923 60.8942 42.1632 60.5241C42.8418 60.1461 43.6053 59.957 44.4536 59.957C45.194 59.957 45.861 60.0938 46.4549 60.3673C47.0487 60.6408 47.5422 61.035 47.9355 61.5498L46.478 62.9254C45.9536 62.2657 45.3174 61.9359 44.5693 61.9359C44.1297 61.9359 43.7364 62.0365 43.3894 62.2376C43.0501 62.4387 42.784 62.7242 42.5912 63.0943C42.4061 63.4563 42.3136 63.8746 42.3136 64.3492C42.3136 64.8238 42.4061 65.2461 42.5912 65.6162C42.784 65.9781 43.0501 66.2597 43.3894 66.4608C43.7364 66.6619 44.1297 66.7625 44.5693 66.7625C45.3174 66.7625 45.9536 66.4326 46.478 65.773L47.9355 67.1486C47.5422 67.6634 47.0487 68.0576 46.4549 68.3311C45.861 68.6046 45.194 68.7413 44.4536 68.7413Z" fill="white" fill-opacity="0.6"/>
</svg>
