<svg width="41" height="32" viewBox="0 0 41 32" fill="none" xmlns="http://www.w3.org/2000/svg">
<path d="M9.23907 31.9271C9.24807 31.9331 9.26007 31.9301 9.26907 31.9361C9.3399 31.9755 9.41908 31.9974 9.50007 32.0001C9.54468 32 9.58907 31.994 9.63207 31.9821L20.5001 29.0161L31.3681 31.9821C31.4111 31.994 31.4555 32 31.5001 32.0001C31.5809 31.9977 31.6599 31.9753 31.7301 31.9351C31.7401 31.9301 31.7511 31.9321 31.7601 31.9261L40.7601 26.4261C40.853 26.369 40.9248 26.2831 40.9645 26.1815C41.0042 26.0799 41.0097 25.9681 40.9801 25.8631L35.9961 8.3631C35.9757 8.29022 35.939 8.22293 35.8887 8.16632C35.8385 8.10972 35.776 8.06528 35.7061 8.03638C35.6362 8.00748 35.5605 7.99486 35.485 7.99949C35.4095 8.00412 35.336 8.02587 35.2701 8.0631L30.3081 10.8471C30.1994 10.9157 30.1213 11.0234 30.0898 11.148C30.0583 11.2726 30.0759 11.4046 30.139 11.5166C30.202 11.6285 30.3057 11.712 30.4286 11.7497C30.5514 11.7874 30.6841 11.7764 30.7991 11.7191L35.2081 9.2441L39.9151 25.7701L31.9001 30.6691L29.9961 15.4381C29.9796 15.3064 29.9116 15.1867 29.8068 15.1052C29.7021 15.0237 29.5693 14.9872 29.4376 15.0036C29.3059 15.02 29.1861 15.0881 29.1047 15.1929C29.0232 15.2976 28.9866 15.4304 29.0031 15.5621L30.9101 30.8211L21.0001 28.1161V25.3861C21.0001 25.2535 20.9474 25.1263 20.8536 25.0325C20.7599 24.9388 20.6327 24.8861 20.5001 24.8861C20.3675 24.8861 20.2403 24.9388 20.1465 25.0325C20.0528 25.1263 20.0001 25.2535 20.0001 25.3861V28.1161L10.0891 30.8211L11.9961 15.5621C12.0042 15.4969 11.9994 15.4307 11.982 15.3674C11.9646 15.304 11.9348 15.2447 11.8945 15.1929C11.8541 15.141 11.804 15.0976 11.7469 15.0651C11.6897 15.0326 11.6268 15.0117 11.5616 15.0036C11.4964 14.9955 11.4302 15.0002 11.3669 15.0177C11.3035 15.0351 11.2442 15.0648 11.1923 15.1052C11.1405 15.1455 11.0971 15.1957 11.0646 15.2528C11.0321 15.3099 11.0112 15.3729 11.0031 15.4381L9.10007 30.6691L1.08507 25.7711L5.79207 9.2461L10.2011 11.7211C10.3161 11.7784 10.4487 11.7894 10.5716 11.7517C10.6944 11.714 10.7981 11.6305 10.8612 11.5185C10.9242 11.4066 10.9418 11.2746 10.9104 11.15C10.8789 11.0254 10.8007 10.9177 10.6921 10.8491L5.72907 8.0641C5.66334 8.02646 5.58985 8.00438 5.51426 7.99955C5.43866 7.99471 5.36296 8.00726 5.29297 8.03622C5.22298 8.06519 5.16055 8.1098 5.11047 8.16663C5.06039 8.22347 5.02399 8.29102 5.00407 8.3641L0.0200742 25.8641C-0.0100702 25.9691 -0.00486487 26.0811 0.0348886 26.1828C0.074642 26.2845 0.146739 26.3704 0.240074 26.4271L9.23907 31.9271Z" fill="white"/>
<path d="M20.161 23.368C20.2528 23.4527 20.373 23.5 20.4979 23.5006C20.6228 23.5011 20.7435 23.4549 20.836 23.371C21.169 23.068 29 15.882 29 8.5C29 3.733 25.267 0 20.5 0C15.733 0 12 3.733 12 8.5C12 15.754 19.828 23.06 20.161 23.368ZM20.5 1C24.775 1 28 4.224 28 8.5C28 14.597 22.007 20.837 20.503 22.307C19.002 20.82 13 14.498 13 8.5C13 4.224 16.225 1 20.5 1Z" fill="white"/>
<path d="M25 8.5C25 6.019 22.981 4 20.5 4C18.019 4 16 6.019 16 8.5C16 10.981 18.019 13 20.5 13C22.981 13 25 10.981 25 8.5ZM20.5 12C18.57 12 17 10.43 17 8.5C17 6.57 18.57 5 20.5 5C22.43 5 24 6.57 24 8.5C24 10.43 22.43 12 20.5 12Z" fill="white"/>
</svg>
