<svg width="32" height="28" viewBox="0 0 32 28" fill="none" xmlns="http://www.w3.org/2000/svg">
<path d="M1 17.8C1.26522 17.8 1.51957 17.9054 1.70711 18.0929C1.89464 18.2805 2 18.5348 2 18.8V23.8C2 24.3305 2.21071 24.8392 2.58579 25.2143C2.96086 25.5893 3.46957 25.8 4 25.8H28C28.5304 25.8 29.0391 25.5893 29.4142 25.2143C29.7893 24.8392 30 24.3305 30 23.8V18.8C30 18.5348 30.1054 18.2805 30.2929 18.0929C30.4804 17.9054 30.7348 17.8 31 17.8C31.2652 17.8 31.5196 17.9054 31.7071 18.0929C31.8946 18.2805 32 18.5348 32 18.8V23.8C32 24.8609 31.5786 25.8783 30.8284 26.6285C30.0783 27.3786 29.0609 27.8 28 27.8H4C2.93913 27.8 1.92172 27.3786 1.17157 26.6285C0.421427 25.8783 0 24.8609 0 23.8V18.8C0 18.5348 0.105357 18.2805 0.292893 18.0929C0.48043 17.9054 0.734784 17.8 1 17.8Z" fill="green"/>
<path d="M15.2918 21.708C15.3847 21.8011 15.495 21.875 15.6165 21.9254C15.738 21.9758 15.8683 22.0018 15.9998 22.0018C16.1313 22.0018 16.2616 21.9758 16.3831 21.9254C16.5046 21.875 16.6149 21.8011 16.7078 21.708L22.7078 15.708C22.8956 15.5202 23.0011 15.2656 23.0011 15C23.0011 14.7344 22.8956 14.4798 22.7078 14.292C22.52 14.1042 22.2654 13.9987 21.9998 13.9987C21.7342 13.9987 21.4796 14.1042 21.2918 14.292L16.9998 18.586V1C16.9998 0.734784 16.8944 0.48043 16.7069 0.292893C16.5194 0.105357 16.265 0 15.9998 0C15.7346 0 15.4802 0.105357 15.2927 0.292893C15.1052 0.48043 14.9998 0.734784 14.9998 1V18.586L10.7078 14.292C10.52 14.1042 10.2654 13.9987 9.9998 13.9987C9.73425 13.9987 9.47957 14.1042 9.2918 14.292C9.10403 14.4798 8.99854 14.7344 8.99854 15C8.99854 15.2656 9.10403 15.5202 9.2918 15.708L15.2918 21.708Z" fill="green"/>
</svg>
