<svg width="40" height="40" viewBox="0 0 40 40" fill="green" xmlns="http://www.w3.org/2000/svg">
<path d="M25.1881 5.34999L25.3448 5.48833L34.5115 14.655C34.7924 14.9375 34.9629 15.3112 34.992 15.7085C35.0212 16.1059 34.907 16.5005 34.6702 16.8209C34.4334 17.1413 34.0897 17.3663 33.7013 17.4551C33.313 17.5439 32.9056 17.4907 32.5531 17.305L27.2665 22.59L24.8931 28.9183C24.8306 29.0853 24.7417 29.2412 24.6298 29.38L24.5131 29.5133L22.0131 32.0133C21.7259 32.3 21.344 32.4721 20.939 32.4973C20.5339 32.5224 20.1336 32.399 19.8131 32.15L19.6548 32.0117L14.9998 27.3583L8.67814 33.6783C8.37821 33.9772 7.97575 34.1508 7.5525 34.1637C7.12925 34.1766 6.71695 34.028 6.39934 33.7479C6.08173 33.4679 5.88263 33.0774 5.84248 32.6559C5.80232 32.2343 5.92412 31.8133 6.18314 31.4783L6.32147 31.3217L12.6415 25L7.98814 20.345C7.70118 20.058 7.52879 19.6762 7.50333 19.2711C7.47786 18.8661 7.60106 18.4657 7.84981 18.145L7.98814 17.9883L10.4881 15.4883C10.6139 15.3621 10.7591 15.2569 10.9181 15.1767L11.0815 15.1067L17.4081 12.7317L22.6931 7.44833C22.5129 7.11138 22.454 6.72274 22.5261 6.3475C22.5983 5.97226 22.7972 5.63322 23.0896 5.38716C23.3819 5.14109 23.7499 5.00296 24.132 4.99589C24.514 4.98882 24.8869 5.11491 25.1881 5.34999Z" fill="green"/>
</svg>
