<svg width="18" height="18" viewBox="0 0 18 18" fill="none" xmlns="http://www.w3.org/2000/svg">
<path d="M15.438 1.95401H13.5V0.546009C13.5 0.284009 13.27 0.0340085 13 0.0460085C12.8681 0.0483206 12.7423 0.101741 12.649 0.195013C12.5557 0.288285 12.5023 0.414123 12.5 0.546009V1.95401H5.50001V0.546009C5.50001 0.284009 5.27001 0.0340085 5.00001 0.0460085C4.86813 0.0483206 4.74229 0.101741 4.64902 0.195013C4.55574 0.288285 4.50232 0.414123 4.50001 0.546009V1.95401H2.56201C1.89921 1.9548 1.26379 2.21845 0.795122 2.68712C0.326453 3.15579 0.0628056 3.79121 0.0620117 4.45401V15.454C0.0620117 16.833 1.18401 17.954 2.56201 17.954H15.437C16.816 17.954 17.937 16.833 17.937 15.454V4.45401C17.9365 3.7913 17.6731 3.15588 17.2045 2.68718C16.736 2.21848 16.1007 1.9548 15.438 1.95401ZM2.56201 2.95401H4.50001V3.54601C4.50001 3.80801 4.73001 4.05801 5.00001 4.04601C5.27101 4.03401 5.50001 3.82601 5.50001 3.54601V2.95401H12.5V3.54601C12.5 3.80801 12.73 4.05801 13 4.04601C13.271 4.03401 13.5 3.82601 13.5 3.54601V2.95401H15.437C16.264 2.95401 16.937 3.62701 16.937 4.45401V6.03801H1.06201V4.45401C1.06201 3.62701 1.73501 2.95401 2.56201 2.95401ZM15.438 16.954H2.56201C1.73501 16.954 1.06201 16.281 1.06201 15.454V7.03801H16.937V15.454C16.937 15.8517 16.7791 16.233 16.498 16.5143C16.2169 16.7956 15.8357 16.9537 15.438 16.954Z" fill="green"/>
</svg>
