<svg width="24" height="19" viewBox="0 0 24 19" fill="none" xmlns="http://www.w3.org/2000/svg">
<path d="M21.1428 16.5714C21.8262 16.5714 22.2856 16.112 22.2856 15.4286V0.285714C22.2856 0.209938 22.2555 0.137266 22.202 0.0836838C22.1484 0.030102 22.0757 0 21.9999 0C21.9242 0 21.8515 0.030102 21.7979 0.0836838C21.7443 0.137266 21.7142 0.209938 21.7142 0.285714V15.4286C21.7142 15.9257 21.3559 16 21.1428 16C21.0839 16 20.5714 15.984 20.5714 15.4286V0.285714C20.5714 0.209938 20.5413 0.137266 20.4877 0.0836838C20.4341 0.030102 20.3614 0 20.2856 0C20.2099 0 20.1372 0.030102 20.0836 0.0836838C20.03 0.137266 19.9999 0.209938 19.9999 0.285714V15.4286C19.9999 16.1789 20.5748 16.5714 21.1428 16.5714ZM2.57136 12H8.28565C8.36142 12 8.43409 11.9699 8.48768 11.9163C8.54126 11.8627 8.57136 11.7901 8.57136 11.7143V6.57143C8.57136 6.49565 8.54126 6.42298 8.48768 6.3694C8.43409 6.31582 8.36142 6.28572 8.28565 6.28572H2.57136C2.49558 6.28572 2.42291 6.31582 2.36933 6.3694C2.31575 6.42298 2.28564 6.49565 2.28564 6.57143V11.7143C2.28564 11.7901 2.31575 11.8627 2.36933 11.9163C2.42291 11.9699 2.49558 12 2.57136 12ZM2.85707 6.85714H7.99993V11.4286H2.85707V6.85714ZM2.57136 4.57143H16.2856C16.3614 4.57143 16.4341 4.54133 16.4877 4.48775C16.5413 4.43416 16.5714 4.36149 16.5714 4.28572V2C16.5714 1.92422 16.5413 1.85155 16.4877 1.79797C16.4341 1.74439 16.3614 1.71429 16.2856 1.71429H2.57136C2.49558 1.71429 2.42291 1.74439 2.36933 1.79797C2.31575 1.85155 2.28564 1.92422 2.28564 2V4.28572C2.28564 4.36149 2.31575 4.43416 2.36933 4.48775C2.42291 4.54133 2.49558 4.57143 2.57136 4.57143ZM2.85707 2.28571H15.9999V4H2.85707V2.28571ZM16.2856 6.28572H10.5714C10.4956 6.28572 10.4229 6.31582 10.3693 6.3694C10.3157 6.42298 10.2856 6.49565 10.2856 6.57143C10.2856 6.64721 10.3157 6.71988 10.3693 6.77346C10.4229 6.82704 10.4956 6.85714 10.5714 6.85714H16.2856C16.3614 6.85714 16.4341 6.82704 16.4877 6.77346C16.5413 6.71988 16.5714 6.64721 16.5714 6.57143C16.5714 6.49565 16.5413 6.42298 16.4877 6.3694C16.4341 6.31582 16.3614 6.28572 16.2856 6.28572ZM16.2856 8H10.5714C10.4956 8 10.4229 8.0301 10.3693 8.08368C10.3157 8.13727 10.2856 8.20994 10.2856 8.28572C10.2856 8.36149 10.3157 8.43416 10.3693 8.48775C10.4229 8.54133 10.4956 8.57143 10.5714 8.57143H16.2856C16.3614 8.57143 16.4341 8.54133 16.4877 8.48775C16.5413 8.43416 16.5714 8.36149 16.5714 8.28572C16.5714 8.20994 16.5413 8.13727 16.4877 8.08368C16.4341 8.0301 16.3614 8 16.2856 8ZM16.2856 9.71429H10.5714C10.4956 9.71429 10.4229 9.74439 10.3693 9.79797C10.3157 9.85155 10.2856 9.92423 10.2856 10C10.2856 10.0758 10.3157 10.1485 10.3693 10.202C10.4229 10.2556 10.4956 10.2857 10.5714 10.2857H16.2856C16.3614 10.2857 16.4341 10.2556 16.4877 10.202C16.5413 10.1485 16.5714 10.0758 16.5714 10C16.5714 9.92423 16.5413 9.85155 16.4877 9.79797C16.4341 9.74439 16.3614 9.71429 16.2856 9.71429ZM16.2856 11.4286H10.5714C10.4956 11.4286 10.4229 11.4587 10.3693 11.5123C10.3157 11.5658 10.2856 11.6385 10.2856 11.7143C10.2856 11.7901 10.3157 11.8627 10.3693 11.9163C10.4229 11.9699 10.4956 12 10.5714 12H16.2856C16.3614 12 16.4341 11.9699 16.4877 11.9163C16.5413 11.8627 16.5714 11.7901 16.5714 11.7143C16.5714 11.6385 16.5413 11.5658 16.4877 11.5123C16.4341 11.4587 16.3614 11.4286 16.2856 11.4286ZM16.2856 13.1429H10.5714C10.4956 13.1429 10.4229 13.173 10.3693 13.2265C10.3157 13.2801 10.2856 13.3528 10.2856 13.4286C10.2856 13.5043 10.3157 13.577 10.3693 13.6306C10.4229 13.6842 10.4956 13.7143 10.5714 13.7143H16.2856C16.3614 13.7143 16.4341 13.6842 16.4877 13.6306C16.5413 13.577 16.5714 13.5043 16.5714 13.4286C16.5714 13.3528 16.5413 13.2801 16.4877 13.2265C16.4341 13.173 16.3614 13.1429 16.2856 13.1429ZM2.57136 13.7143H8.28565C8.36142 13.7143 8.43409 13.6842 8.48768 13.6306C8.54126 13.577 8.57136 13.5043 8.57136 13.4286C8.57136 13.3528 8.54126 13.2801 8.48768 13.2265C8.43409 13.173 8.36142 13.1429 8.28565 13.1429H2.57136C2.49558 13.1429 2.42291 13.173 2.36933 13.2265C2.31575 13.2801 2.28564 13.3528 2.28564 13.4286C2.28564 13.5043 2.31575 13.577 2.36933 13.6306C2.42291 13.6842 2.49558 13.7143 2.57136 13.7143ZM16.2856 14.8571H10.5714C10.4956 14.8571 10.4229 14.8872 10.3693 14.9408C10.3157 14.9944 10.2856 15.0671 10.2856 15.1429C10.2856 15.2186 10.3157 15.2913 10.3693 15.3449C10.4229 15.3985 10.4956 15.4286 10.5714 15.4286H16.2856C16.3614 15.4286 16.4341 15.3985 16.4877 15.3449C16.5413 15.2913 16.5714 15.2186 16.5714 15.1429C16.5714 15.0671 16.5413 14.9944 16.4877 14.9408C16.4341 14.8872 16.3614 14.8571 16.2856 14.8571ZM2.57136 15.4286H8.28565C8.36142 15.4286 8.43409 15.3985 8.48768 15.3449C8.54126 15.2913 8.57136 15.2186 8.57136 15.1429C8.57136 15.0671 8.54126 14.9944 8.48768 14.9408C8.43409 14.8872 8.36142 14.8571 8.28565 14.8571H2.57136C2.49558 14.8571 2.42291 14.8872 2.36933 14.9408C2.31575 14.9944 2.28564 15.0671 2.28564 15.1429C2.28564 15.2186 2.31575 15.2913 2.36933 15.3449C2.42291 15.3985 2.49558 15.4286 2.57136 15.4286Z" fill="#1048D0"/>
<path d="M2.85713 18.2554H21.1543C21.1583 18.2554 21.1617 18.2531 21.1657 18.2531C21.911 18.2467 22.6236 17.9464 23.1487 17.4175C23.6739 16.8886 23.9691 16.1739 23.9703 15.4286V0.285702C23.9703 0.217958 23.9434 0.152989 23.8955 0.105087C23.8476 0.0571846 23.7826 0.0302734 23.7148 0.0302734C23.6471 0.0302734 23.5821 0.0571846 23.5342 0.105087C23.4863 0.152989 23.4594 0.217958 23.4594 0.285702V15.4286C23.4594 16.7057 22.4206 17.7446 21.1434 17.7446C19.8663 17.7446 18.8268 16.7057 18.8268 15.4286V0.285702C18.8268 0.144559 18.7126 0.0302734 18.5714 0.0302734H0.285702C0.144559 0.0302734 0.0302734 0.144559 0.0302734 0.285702V15.4286C0.0310298 16.1781 0.329101 16.8966 0.859076 17.4266C1.38905 17.9566 2.10763 18.2547 2.85713 18.2554ZM0.541131 0.541131H18.3154V15.4286C18.3154 15.6034 18.3366 15.7731 18.3668 15.94C18.3731 15.9731 18.3783 16.0063 18.3857 16.0388C18.4211 16.1977 18.468 16.3514 18.5291 16.4994C18.54 16.5263 18.5531 16.5514 18.5651 16.5777C18.6268 16.716 18.6983 16.8491 18.7811 16.9748C18.7908 16.9891 18.7983 17.0046 18.808 17.0188C18.8983 17.1503 19.0011 17.272 19.1114 17.3863C19.1354 17.4108 19.1588 17.4348 19.184 17.4588C19.2903 17.5617 19.4023 17.6594 19.5234 17.7446H2.85713C2.24312 17.7438 1.65448 17.4996 1.22031 17.0654C0.786136 16.6312 0.541887 16.0426 0.541131 15.4286V0.541131Z" fill="#1048D0"/>
</svg>
