<svg width="24" height="18" viewBox="0 0 24 18" fill="none" xmlns="http://www.w3.org/2000/svg">
<path d="M2.76875 17.75C2.19375 17.75 1.71375 17.5575 1.32875 17.1725C0.942917 16.7867 0.75 16.3062 0.75 15.7313V2.26875C0.75 1.69375 0.942917 1.21375 1.32875 0.82875C1.71375 0.442916 2.19375 0.25 2.76875 0.25H21.2313C21.8062 0.25 22.2863 0.442916 22.6713 0.82875C23.0571 1.21375 23.25 1.69375 23.25 2.26875V15.7313C23.25 16.3062 23.0575 16.7863 22.6725 17.1713C22.2867 17.5571 21.8062 17.75 21.2313 17.75H2.76875ZM12 9.14375L2 2.60625V15.7313C2 15.9554 2.07208 16.1396 2.21625 16.2837C2.36042 16.4279 2.54458 16.5 2.76875 16.5H21.2313C21.4554 16.5 21.6396 16.4279 21.7837 16.2837C21.9279 16.1396 22 15.9554 22 15.7313V2.60625L12 9.14375ZM12 7.75L21.615 1.5H2.385L12 7.75ZM2 2.60625V1.5V15.7313C2 15.9554 2.07208 16.1396 2.21625 16.2837C2.36042 16.4279 2.54458 16.5 2.76875 16.5H2V2.60625Z" fill="white"/>
</svg>
