<svg width="23" height="23" viewBox="0 0 23 23" fill="none" xmlns="http://www.w3.org/2000/svg">
<path d="M6.49832 9.41537C8.12338 12.415 10.5857 14.8773 13.5853 16.5023L15.2486 14.839C15.5996 14.4861 16.0396 14.2348 16.5219 14.1117C17.0041 13.9886 17.5107 13.9983 17.9879 14.1398C18.7928 14.3809 19.6184 14.5466 20.4539 14.6348C21.287 14.7231 21.9069 15.4476 21.9069 16.7121V20.1771C21.9069 21.1767 21.044 21.9434 20.0484 21.8556C10.0196 20.9691 2.03094 12.9811 1.14501 2.95225C1.05726 1.95719 1.82676 1.09375 2.82632 1.09375H6.71207C7.54963 1.09375 8.27695 1.71363 8.36526 2.54669C8.45365 3.38227 8.61955 4.20783 8.86082 5.01269C9.00225 5.48994 9.01244 5.99658 8.88924 6.47886C8.76605 6.96115 8.51462 7.4011 8.16163 7.75206L6.49832 9.41537ZM6.49832 9.41537L4.05426 11.8589M11.1412 18.9458L13.5847 16.5023" stroke="white" stroke-linecap="round" stroke-linejoin="round"/>
</svg>
