<svg width="30" height="30" viewBox="0 0 30 30" fill="none" xmlns="http://www.w3.org/2000/svg">
<circle cx="15" cy="15" r="14.25" stroke="#9ECCEB" stroke-width="1.5"/>
<path d="M14.9999 7.58064C15.9838 7.58064 16.9274 7.97148 17.6231 8.66718C18.3188 9.36288 18.7096 10.3065 18.7096 11.2903C18.7096 12.2742 18.3188 13.2178 17.6231 13.9135C16.9274 14.6092 15.9838 15 14.9999 15C14.0161 15 13.0725 14.6092 12.3768 13.9135C11.6811 13.2178 11.2902 12.2742 11.2902 11.2903C11.2902 10.3065 11.6811 9.36288 12.3768 8.66718C13.0725 7.97148 14.0161 7.58064 14.9999 7.58064ZM14.9999 16.8548C19.0991 16.8548 22.4193 18.5149 22.4193 20.5645V22.4194H7.58057V20.5645C7.58057 18.5149 10.9007 16.8548 14.9999 16.8548Z" fill="#9ECCEB"/>
</svg>
