<svg width="24" height="24" viewBox="0 0 24 24" fill="none" xmlns="http://www.w3.org/2000/svg">
<path d="M16.5575 17.4425L17.4425 16.5575L12.625 11.74V5.75H11.375V12.26L16.5575 17.4425ZM12.0037 23.25C10.4488 23.25 8.98625 22.955 7.61625 22.365C6.24708 21.7742 5.05583 20.9725 4.0425 19.96C3.02917 18.9483 2.22708 17.7583 1.63625 16.39C1.04542 15.0217 0.75 13.5596 0.75 12.0037C0.75 10.4488 1.045 8.98625 1.635 7.61625C2.22583 6.24708 3.0275 5.05583 4.04 4.0425C5.05167 3.02917 6.24167 2.22708 7.61 1.63625C8.97833 1.04542 10.4404 0.75 11.9963 0.75C13.5512 0.75 15.0138 1.045 16.3837 1.635C17.7529 2.22583 18.9442 3.0275 19.9575 4.04C20.9708 5.05167 21.7729 6.24167 22.3638 7.61C22.9546 8.97833 23.25 10.4404 23.25 11.9963C23.25 13.5512 22.955 15.0138 22.365 16.3837C21.7742 17.7529 20.9725 18.9442 19.96 19.9575C18.9483 20.9708 17.7583 21.7729 16.39 22.3638C15.0217 22.9546 13.5596 23.25 12.0037 23.25ZM12 22C14.7708 22 17.1304 21.0263 19.0788 19.0788C21.0271 17.1313 22.0008 14.7717 22 12C22 9.22917 21.0263 6.86958 19.0788 4.92125C17.1313 2.97292 14.7717 1.99917 12 2C9.22917 2 6.86958 2.97417 4.92125 4.9225C2.97292 6.87083 1.99917 9.23 2 12C2 14.7708 2.97417 17.1304 4.9225 19.0788C6.87083 21.0271 9.23 22.0008 12 22Z" fill="white"/>
</svg>
